# xmcd
# Track frame offsets:
# 150
# 13618
# 30370
# 41745
# 58210
# 72002
# 87880
# 101757
# 115684
# 129646
# 147513
# 163617
# 175946
# 191808
# 203574
#
# Disc length: 2928 seconds
# Revision: 0
# Processed by: cddbd v1.5.1PL0 Copyright (c) Steve Scherf et al.
# Submitted via: VisiTrax 2.9.10.228 - For more info visit www.synapsa.com
#
DISCID=cf0b6e0f
DTITLE=Fricke, Janie - CB90113
DYEAR=1900
DGENRE=Karaoke
TTITLE0=He's A Heartache
TTITLE1=It Ain't Easy Bein' Easy
TTITLE2=Don't Worry 'bout Me Baby
TTITLE3=Tell Me A Lie
TTITLE4=She's Single Again
TTITLE5=Let's Stop Talking About It
TTITLE6=I'll Need Someone To Hold Me When I Cry
TTITLE7=Do Me With Love
TTITLE8=Your Heart's Not In It
TTITLE9=Always Have Always Will
TTITLE10=You Don't Know Love
TTITLE11=Down To My Last Broken Heart
TTITLE12=Easy To Please
TTITLE13=Pride
TTITLE14=Somebody Else's Fire
EXTD=letazz
EXTT0=
EXTT1=
EXTT2=
EXTT3=
EXTT4=
EXTT5=
EXTT6=
EXTT7=
EXTT8=
EXTT9=
EXTT10=
EXTT11=
EXTT12=
EXTT13=
EXTT14=
PLAYORDER=
